<?xml version="1.0" standalone="no"?>
<!DOCTYPE svg PUBLIC "-//W3C//DTD SVG 20010904//EN"
 "http://www.w3.org/TR/2001/REC-SVG-20010904/DTD/svg10.dtd">
<svg version="1.0" xmlns="http://www.w3.org/2000/svg"
 width="260.000000pt" height="260.000000pt" viewBox="0 0 260.000000 260.000000"
 preserveAspectRatio="xMidYMid meet">
<metadata>
Created by potrace 1.11, written by Peter Selinger 2001-2013
</metadata>
<g transform="translate(0.000000,260.000000) scale(0.100000,-0.100000)"
fill="#000000" stroke="none">
<path d="M1700 2449 c0 -5 -4 -8 -9 -5 -5 3 -28 -10 -52 -28 -44 -34 -149
-141 -149 -151 0 -3 -17 -27 -37 -53 l-38 -47 -100 0 c-108 -1 -151 -7 -216
-29 -24 -8 -46 -13 -51 -10 -4 3 -8 2 -8 -3 0 -4 -20 -16 -45 -26 -97 -40
-262 -170 -302 -238 -9 -15 -21 -25 -26 -22 -15 9 -105 17 -217 17 -92 1 -111
-2 -155 -24 -27 -14 -55 -35 -61 -47 -6 -13 -14 -20 -17 -16 -4 3 -7 1 -7 -5
0 -7 5 -12 11 -12 8 0 8 -5 -1 -15 -9 -10 -9 -15 -1 -15 6 0 11 -8 11 -18 0
-18 66 -119 100 -151 69 -69 298 -241 320 -241 6 0 10 -5 10 -12 0 -6 3 -9 6
-6 5 6 60 -26 90 -51 7 -6 15 -7 18 -4 3 4 6 2 6 -4 0 -10 19 -19 44 -21 5 0
12 -4 15 -9 8 -13 211 -115 211 -107 0 4 9 -1 19 -10 11 -10 25 -19 33 -20 7
-2 31 -11 53 -21 47 -20 88 -38 95 -40 3 -1 23 -9 44 -18 22 -10 50 -20 63
-23 19 -5 22 -11 17 -28 -10 -34 -123 -245 -172 -321 -25 -38 -44 -71 -44 -72
1 -2 -33 -45 -61 -74 -9 -10 -14 -19 -11 -19 12 0 -90 -91 -117 -105 -14 -8
-34 -12 -45 -10 -10 2 -24 4 -30 4 -12 1 -36 45 -41 76 -6 33 -9 159 -5 177 3
14 12 11 57 -17 29 -19 73 -42 97 -51 23 -10 48 -21 54 -26 19 -14 65 48 58
78 -5 18 -2 24 10 24 25 0 20 48 -9 86 -15 19 -21 35 -15 39 5 3 10 3 10 -2 0
-9 20 19 20 29 0 4 -14 15 -30 25 -17 9 -30 22 -30 28 0 12 -72 45 -100 45
-11 0 -20 4 -20 9 0 5 -22 19 -50 32 -38 17 -51 29 -55 51 -4 15 -11 28 -16
28 -5 0 -8 3 -7 8 4 15 -14 92 -23 98 -5 3 -1 20 8 37 24 45 24 55 1 63 -32
10 -268 156 -268 165 0 5 -9 9 -20 9 -18 0 -20 -5 -15 -72 6 -102 10 -136 25
-188 7 -25 13 -49 15 -55 4 -20 25 -70 40 -96 8 -14 12 -29 8 -33 -3 -3 -1 -6
5 -6 6 0 14 -10 18 -22 3 -12 10 -26 15 -32 34 -42 89 -122 89 -130 0 -5 3 -7
6 -3 8 7 34 -17 34 -32 0 -6 5 -11 11 -11 16 0 59 -36 52 -43 -20 -21 -23
-306 -4 -368 17 -53 57 -100 79 -92 11 5 13 3 7 -8 -8 -12 -6 -12 8 0 10 8 17
9 17 3 0 -19 90 39 149 97 60 58 106 115 156 191 17 25 33 47 38 48 4 2 5 8 1
13 -3 5 0 9 6 9 6 0 9 4 6 9 -3 5 1 11 9 15 8 3 15 9 15 14 0 5 22 47 49 93
26 47 67 124 89 172 41 86 53 96 87 76 6 -4 34 -12 63 -20 28 -7 52 -17 52
-21 0 -5 4 -7 9 -4 4 3 39 -4 77 -15 74 -22 102 -28 150 -33 17 -2 37 -7 43
-11 7 -4 29 -9 49 -10 20 -2 53 -7 72 -10 42 -9 201 -10 250 -3 54 8 93 27
118 55 24 29 29 72 10 92 -11 11 -10 12 2 6 13 -8 13 -7 0 9 -14 18 -32 47
-46 75 -13 25 -111 117 -204 190 -23 18 -25 25 -26 118 -2 122 -10 174 -40
267 -9 28 -19 56 -23 61 -3 6 -6 12 -6 15 -4 35 -81 155 -153 238 l-55 64 -13
-30 c-17 -41 -13 -57 22 -96 49 -56 57 -67 106 -154 24 -44 75 -195 81 -243 2
-20 8 -42 11 -48 4 -6 2 -11 -4 -11 -6 0 -8 -5 -4 -11 8 -14 13 -109 5 -109
-3 0 -6 -12 -7 -27 -2 -58 -16 -128 -27 -135 -9 -5 -8 -8 3 -8 9 0 11 -3 5 -8
-5 -4 -11 -11 -12 -17 -1 -5 -6 -21 -12 -35 -11 -24 -11 -23 -8 8 3 28 1 33
-15 29 -10 -3 -18 -1 -18 4 0 5 -15 2 -32 -8 -39 -21 -49 -22 -65 -10 -9 6
-13 6 -13 -2 0 -21 -20 -11 -38 18 -14 23 -19 26 -30 15 -15 -16 -16 -34 -1
-34 5 0 7 -4 4 -10 -3 -5 -1 -10 5 -10 6 0 9 -4 6 -9 -3 -5 1 -12 10 -15 21
-8 20 -8 39 10 15 15 17 15 30 -2 9 -13 10 -24 4 -37 -8 -14 -5 -19 13 -26 15
-5 26 -5 30 3 6 8 8 8 8 0 0 -7 15 -12 33 -13 17 0 42 -2 54 -5 19 -4 35 6 39
24 0 3 6 18 12 33 7 16 12 34 12 41 0 7 3 16 7 20 7 7 10 19 20 79 3 20 11 37
17 37 17 0 89 -70 123 -120 70 -104 10 -160 -168 -155 -92 3 -162 14 -271 41
-13 3 -34 7 -48 10 -14 3 -32 7 -40 9 -8 2 -16 4 -17 5 -2 2 -6 3 -10 4 -5 2
-28 9 -53 16 -25 7 -48 14 -52 16 -5 1 -9 2 -10 4 -2 1 -11 3 -21 5 -48 9 -48
10 -2 120 24 58 45 109 46 113 4 17 11 39 20 61 10 24 80 236 86 259 2 6 5 20
7 30 3 9 5 17 6 17 3 0 12 39 13 58 1 9 4 17 7 17 4 0 7 6 7 13 1 6 8 40 16
75 8 34 13 62 10 62 -3 0 0 6 6 14 6 8 11 18 9 22 -2 11 13 96 19 107 13 21
21 319 10 362 -3 11 -8 32 -12 48 -4 15 -11 27 -16 27 -5 0 -9 7 -9 15 0 9
-12 20 -26 25 -34 13 -84 13 -84 -1z m-6 -141 c40 -40 50 -205 21 -349 -3 -13
-7 -35 -10 -49 -3 -14 -7 -36 -10 -50 -3 -14 -7 -36 -10 -50 -11 -55 -16 -77
-35 -140 -8 -25 -15 -49 -16 -55 -1 -5 -3 -14 -4 -20 -2 -5 -4 -14 -5 -20 -1
-5 -5 -17 -8 -25 -3 -8 -16 -46 -28 -85 -12 -38 -24 -74 -28 -80 -3 -5 -7 -18
-8 -28 -2 -10 -10 -32 -19 -49 -8 -16 -17 -37 -19 -46 -2 -10 -11 -35 -21 -57
-10 -22 -18 -42 -19 -45 -1 -3 -9 -22 -18 -44 -9 -21 -17 -42 -17 -47 0 -10
-49 -1 -66 12 -6 5 -14 6 -17 2 -4 -3 -7 -1 -7 6 0 6 -6 11 -12 10 -7 -2 -39
10 -72 24 -32 15 -60 27 -61 27 -2 0 -50 22 -107 48 -57 27 -107 50 -113 52
-5 1 -21 10 -35 19 -14 9 -47 28 -75 42 -27 13 -51 27 -53 32 -2 4 -10 7 -18
7 -8 0 -14 3 -14 8 0 4 -18 16 -40 26 -22 11 -40 23 -40 28 0 4 -5 8 -11 8
-11 0 -87 50 -111 72 -7 7 -30 26 -51 41 -64 48 -122 114 -141 159 -25 57 3
101 70 114 42 8 164 10 176 3 5 -4 -3 -27 -21 -56 -28 -46 -67 -128 -60 -128
1 0 -3 -10 -9 -22 -11 -19 -8 -26 20 -53 18 -17 45 -38 61 -48 15 -9 27 -20
27 -24 0 -4 7 -8 15 -8 8 0 15 -5 15 -11 0 -5 4 -8 8 -5 5 3 20 -6 35 -20 15
-14 27 -22 27 -19 0 6 103 -56 111 -68 3 -5 8 -8 10 -7 7 3 84 -34 91 -44 4
-6 28 1 56 16 46 24 50 24 78 10 16 -9 46 -14 67 -13 25 2 45 -3 57 -14 11
-10 33 -18 49 -19 26 -1 30 -4 28 -26 -2 -14 -6 -30 -9 -36 -8 -11 16 -46 25
-37 4 3 7 1 7 -6 0 -7 5 -9 10 -6 6 3 10 0 10 -7 0 -7 12 -23 27 -35 l27 -23
19 30 c10 16 20 35 21 42 1 7 6 21 12 31 14 24 -9 137 -30 149 -9 5 -16 18
-16 28 0 11 -7 20 -15 20 -8 0 -15 -5 -15 -10 0 -20 29 -80 39 -80 12 0 -20
-58 -36 -64 -6 -3 -19 2 -30 10 -17 13 -16 14 11 12 38 -4 42 11 13 53 -13 20
-27 48 -31 63 -5 22 -10 25 -20 17 -10 -9 -21 -8 -41 1 -23 10 -28 10 -36 -5
-5 -9 -15 -14 -22 -11 -7 2 -27 -9 -45 -25 -28 -27 -35 -29 -62 -19 -27 9 -35
19 -31 41 0 4 -4 7 -9 7 -17 0 -11 21 14 51 13 15 27 34 30 41 5 10 7 10 12 1
3 -7 12 -13 20 -13 8 0 14 -5 14 -11 0 -6 12 -9 27 -7 22 2 27 9 30 36 3 21 0
32 -9 32 -9 1 -8 4 3 10 9 5 30 8 48 5 17 -2 31 1 31 6 0 5 9 9 19 9 11 0 23
5 26 10 4 6 15 8 26 5 17 -6 24 3 20 27 0 4 8 12 19 18 26 14 28 -7 3 -26 -16
-12 -15 -14 15 -27 18 -7 43 -12 55 -11 12 1 25 3 30 3 4 1 7 8 7 16 0 14 13
20 35 15 5 -1 7 2 3 6 -4 4 -3 13 3 20 8 10 7 18 -5 29 -20 21 -20 21 5 56 25
35 12 38 -26 5 -20 -17 -25 -29 -20 -45 4 -14 1 -23 -9 -27 -9 -3 -16 -12 -16
-19 0 -12 -21 -25 -40 -25 -5 0 -7 9 -5 20 6 29 -5 52 -21 46 -7 -3 -17 1 -24
8 -8 10 -7 15 5 20 9 3 14 10 10 15 -3 6 14 18 37 29 24 11 55 30 69 44 30 28
70 29 98 4 18 -17 19 -16 31 36 6 29 13 64 15 78 3 14 7 36 10 50 3 14 8 55
12 91 l6 66 -69 26 c-67 25 -101 35 -137 41 -10 1 -17 5 -17 9 0 4 0 11 0 15
0 5 26 35 57 67 78 79 131 99 167 63z m-384 -249 c0 -6 -4 -7 -10 -4 -5 3 -10
2 -10 -4 0 -9 -33 -25 -55 -26 -5 -1 -20 -6 -32 -13 -19 -10 -20 -10 -16 9 4
12 11 18 20 15 7 -3 16 1 20 9 3 10 12 13 24 10 13 -5 19 -1 19 10 0 12 -5 15
-17 10 -10 -4 -29 -9 -42 -11 -14 -3 -28 -7 -33 -10 -4 -3 -8 -1 -8 4 0 13 29
25 58 25 12 0 22 3 22 8 0 4 14 1 30 -7 17 -9 30 -20 30 -25z m124 -14 c11 -8
14 -15 8 -15 -24 0 -11 -21 21 -35 17 -8 26 -14 20 -15 -7 0 -12 -5 -10 -11 1
-6 -11 -16 -28 -22 -16 -6 -36 -16 -43 -24 -11 -10 -17 -11 -28 -2 -11 9 -15
8 -20 -5 -3 -9 -10 -13 -15 -10 -5 3 -9 0 -9 -6 0 -6 -4 -8 -10 -5 -5 3 -10 0
-10 -7 0 -9 -3 -9 -10 2 -5 8 -24 16 -42 18 -18 1 -42 3 -53 4 -11 0 -37 -2
-59 -7 -30 -6 -38 -5 -34 5 2 8 13 18 24 24 10 6 22 15 25 20 4 5 11 6 17 2 5
-3 12 1 15 8 4 10 15 13 31 10 14 -2 28 0 31 6 4 6 11 8 16 5 5 -4 9 -2 9 4 0
6 15 13 34 17 19 3 37 12 40 20 4 10 12 11 29 5 17 -7 24 -6 24 4 0 7 -7 11
-16 8 -14 -4 -14 -4 -1 6 19 14 21 13 44 -4z m-280 -16 c9 8 16 8 20 2 4 -6
-2 -15 -13 -21 -12 -6 -22 -6 -25 -1 -5 8 -27 8 -46 1 -3 -1 -9 -2 -14 -1 -5
1 -3 -6 5 -15 9 -12 9 -15 2 -10 -7 4 -13 4 -13 -1 0 -4 -14 -14 -31 -22 -16
-7 -28 -16 -25 -19 8 -7 -36 -43 -48 -39 -6 2 -12 13 -14 25 -4 28 -18 28 -25
1 -3 -12 -10 -18 -15 -15 -6 3 -12 1 -14 -5 -3 -10 -38 -2 -38 10 1 9 83 66
93 63 4 -1 7 2 7 7 0 13 45 28 109 36 18 2 36 7 39 10 3 2 11 0 19 -6 9 -9 17
-8 27 0z m404 -131 c-2 -5 -8 -9 -13 -9 -5 0 -11 4 -13 9 -1 5 4 9 13 9 9 0
14 -4 13 -9z m-673 -8 c3 -5 2 -10 -4 -10 -5 0 -13 5 -16 10 -3 6 -2 10 4 10
5 0 13 -4 16 -10z m57 -7 c-6 -3 -10 -9 -7 -14 4 -5 -1 -6 -10 -3 -14 6 -14 8
2 19 10 8 20 11 23 8 3 -3 -1 -8 -8 -10z m368 -60 c0 -5 -11 -10 -25 -11 -19
-1 -25 3 -25 17 0 11 6 21 12 23 13 5 38 -15 38 -29z m4 -148 c3 -8 2 -15 -3
-15 -5 0 -6 -24 -4 -52 2 -29 1 -50 -3 -46 -4 5 -13 3 -20 -3 -8 -7 -14 -7
-19 1 -3 6 -10 8 -15 5 -20 -13 -18 15 2 32 13 10 25 25 27 33 5 23 9 44 10
53 2 13 19 7 25 -8z m-60 -40 c-9 -14 -22 -21 -30 -18 -16 6 -16 6 -9 25 3 7
16 14 30 14 23 2 23 1 9 -21z m66 -320 c-7 -8 -17 -15 -22 -15 -6 0 -5 7 2 15
7 8 17 15 22 15 6 0 5 -7 -2 -15z"/>
<path d="M1580 1631 c0 -5 5 -13 10 -16 6 -3 10 -2 10 4 0 5 -4 13 -10 16 -5
3 -10 2 -10 -4z"/>
<path d="M1695 1316 c-15 -16 -12 -35 5 -46 17 -11 30 -4 30 16 0 24 -23 43
-35 30z"/>
<path d="M1627 1143 c-18 -40 -16 -53 7 -34 14 12 28 71 16 71 -3 0 -13 -17
-23 -37z"/>
<path d="M1690 801 c0 -14 25 -20 41 -10 8 5 12 9 9 10 -3 0 -15 2 -27 5 -13
2 -23 0 -23 -5z"/>
<path d="M1744 744 c-20 -24 -40 -44 -44 -44 -19 0 -147 -94 -163 -121 -11
-17 -28 -29 -40 -30 -12 0 -31 -3 -42 -5 -11 -3 -42 -7 -70 -10 -39 -3 -55
-10 -72 -32 -40 -48 -33 -54 60 -47 45 3 92 7 105 8 12 0 22 4 22 7 0 4 6 7
13 8 32 2 76 15 114 32 24 11 45 20 47 20 3 0 33 17 68 37 78 47 133 92 195
164 l23 25 -32 2 c-18 2 -35 6 -38 10 -3 4 -16 8 -30 9 -14 1 -37 4 -52 6 -22
3 -34 -4 -64 -39z"/>
</g>
</svg>
